<svg xmlns="http://www.w3.org/2000/svg" width="260" height="300" viewBox="0 0 260 300"><rect width="100%" height="100%" fill="#DDDDDD"/><path fill="#999999" d="M60.895 158.625h6.49q.7 0 1.11.4.41.39.41 1.04v2.59h-17.36v-1.44q0-.43.19-.91.18-.49.58-.87l7.69-7.7q.96-.98 1.72-1.87.76-.9 1.27-1.77.51-.88.78-1.78t.27-1.9q0-.91-.26-1.6-.27-.69-.75-1.16t-1.15-.71q-.68-.24-1.52-.24-.77 0-1.42.22-.66.22-1.17.62-.5.39-.85.91-.35.53-.53 1.16-.3.8-.77 1.07-.47.26-1.36.12l-2.28-.4q.26-1.82 1.02-3.2.75-1.37 1.88-2.29t2.59-1.38q1.46-.47 3.14-.47 1.75 0 3.2.52t2.49 1.46q1.03.95 1.61 2.28.57 1.33.57 2.95 0 1.4-.41 2.59t-1.1 2.28q-.69 1.08-1.62 2.1-.92 1.01-1.94 2.06l-5.71 5.83q.83-.24 1.64-.37.81-.14 1.55-.14m26.27-21.28-7.51 9.19-.88 1.09q.74-.37 1.59-.57t1.83-.2q1.43 0 2.79.47 1.35.47 2.39 1.43 1.03.95 1.66 2.37.63 1.41.63 3.3 0 1.77-.65 3.32t-1.82 2.7q-1.17 1.16-2.82 1.82-1.66.67-3.65.67-2.03 0-3.64-.65t-2.75-1.81-1.74-2.8q-.61-1.64-.61-3.63 0-1.79.73-3.67t2.25-3.91l6.04-8.1q.31-.42.92-.72.6-.3 1.39-.3zm-6.53 22.05q1.03 0 1.9-.35.86-.35 1.49-.98.62-.63.97-1.47.35-.85.35-1.85 0-1.09-.34-1.95-.33-.87-.94-1.47-.61-.61-1.47-.92-.86-.32-1.89-.32t-1.87.35-1.44.98q-.59.62-.93 1.47-.33.84-.33 1.82 0 1.05.29 1.92t.86 1.48 1.41.95 1.94.34m29.61-9.39q0 3.3-.71 5.75-.71 2.44-1.96 4.03t-2.96 2.37q-1.7.78-3.68.78t-3.67-.78-2.93-2.37-1.94-4.03q-.7-2.45-.7-5.75 0-3.33.7-5.76t1.94-4.03q1.24-1.59 2.93-2.37t3.67-.78 3.68.78q1.71.78 2.96 2.37 1.25 1.6 1.96 4.03t.71 5.76m-4.46 0q0-2.75-.41-4.55-.4-1.81-1.07-2.87-.68-1.07-1.55-1.5-.88-.43-1.82-.43-.93 0-1.79.43-.87.43-1.54 1.5-.66 1.06-1.05 2.87-.4 1.8-.4 4.55 0 2.74.4 4.55.39 1.8 1.05 2.87.67 1.06 1.54 1.49.86.43 1.79.43.94 0 1.82-.43.87-.43 1.55-1.49.67-1.07 1.07-2.87.41-1.81.41-4.55m32.25 6.86-2.29 2.25-5.94-5.93-5.98 5.97-2.29-2.26 5.98-6-5.7-5.71 2.27-2.27 5.71 5.7 5.67-5.67 2.31 2.28-5.69 5.69zm14.56-12.06-2.28-.4q.27-1.82 1.02-3.2.75-1.37 1.88-2.29t2.59-1.38q1.46-.47 3.14-.47 1.75 0 3.16.5t2.41 1.39q.99.88 1.53 2.07.53 1.19.53 2.57 0 1.21-.27 2.13t-.78 1.6-1.26 1.15q-.75.48-1.7.79 2.28.72 3.4 2.19t1.12 3.69q0 1.89-.7 3.34-.7 1.46-1.89 2.45-1.19.98-2.76 1.49-1.56.51-3.31.51-1.91 0-3.33-.44t-2.47-1.29q-1.05-.86-1.78-2.1-.74-1.25-1.26-2.87l1.91-.79q.75-.32 1.41-.17.65.15.95.71.31.61.69 1.21.38.59.9 1.06.53.46 1.24.75.7.29 1.68.29 1.11 0 1.93-.36t1.37-.94q.55-.57.83-1.28.27-.71.27-1.43 0-.91-.2-1.65-.19-.75-.8-1.27-.61-.53-1.76-.82-1.15-.3-3.07-.3v-3.08q1.59-.02 2.64-.3t1.67-.78.87-1.2q.24-.7.24-1.54 0-1.78-.99-2.71-1-.93-2.66-.93-.77 0-1.42.22t-1.16.62q-.52.39-.87.91-.35.53-.53 1.16-.29.8-.77 1.07-.49.26-1.36.12m35.56 5.2q0 3.3-.71 5.75-.71 2.44-1.96 4.03t-2.96 2.37q-1.7.78-3.68.78t-3.67-.78-2.93-2.37-1.94-4.03q-.7-2.45-.7-5.75 0-3.33.7-5.76t1.94-4.03q1.24-1.59 2.93-2.37t3.67-.78 3.68.78q1.71.78 2.96 2.37 1.25 1.6 1.96 4.03t.71 5.76m-4.46 0q0-2.75-.41-4.55-.4-1.81-1.07-2.87-.68-1.07-1.55-1.5-.88-.43-1.82-.43-.93 0-1.79.43-.87.43-1.54 1.5-.66 1.06-1.05 2.87-.4 1.8-.4 4.55 0 2.74.4 4.55.39 1.8 1.05 2.87.67 1.06 1.54 1.49.86.43 1.79.43.94 0 1.82-.43.87-.43 1.55-1.49.67-1.07 1.07-2.87.41-1.81.41-4.55m24.76 0q0 3.3-.71 5.75-.71 2.44-1.96 4.03t-2.96 2.37q-1.7.78-3.68.78t-3.67-.78q-1.68-.78-2.93-2.37-1.24-1.59-1.94-4.03-.7-2.45-.7-5.75 0-3.33.7-5.76t1.94-4.03q1.25-1.59 2.93-2.37 1.69-.78 3.67-.78t3.68.78q1.71.78 2.96 2.37 1.25 1.6 1.96 4.03t.71 5.76m-4.46 0q0-2.75-.41-4.55-.4-1.81-1.07-2.87-.68-1.07-1.55-1.5-.88-.43-1.82-.43-.93 0-1.79.43-.87.43-1.53 1.5-.67 1.06-1.06 2.87-.4 1.8-.4 4.55 0 2.74.4 4.55.39 1.8 1.06 2.87.66 1.06 1.53 1.49.86.43 1.79.43.94 0 1.82-.43.87-.43 1.55-1.49.67-1.07 1.07-2.87.41-1.81.41-4.55"/></svg>